<?xml version="1.0" encoding="UTF-8"?>
<svg version="1.1" xmlns="http://www.w3.org/2000/svg" width="50" height="56">
<path d="M0 0 C16.5 0 33 0 50 0 C50 18.48 50 36.96 50 56 C33.5 56 17 56 0 56 C0 37.52 0 19.04 0 0 Z " fill="#FBFBFB" transform="translate(0,0)"/>
<path d="M0 0 C2.31 0 4.62 0 7 0 C10.63 6.93 14.26 13.86 18 21 C21.96 14.07 25.92 7.14 30 0 C31.98 0 33.96 0 36 0 C36.04898438 1.18078125 36.09796875 2.3615625 36.1484375 3.578125 C36.22348879 5.13543937 36.29903561 6.69272991 36.375 8.25 C36.4059375 9.02730469 36.436875 9.80460937 36.46875 10.60546875 C36.72658242 16.07379907 36.72658242 16.07379907 39 21 C38.01 21.495 38.01 21.495 37 22 C36.67 27.61 36.34 33.22 36 39 C34.35 39 32.7 39 31 39 C30.67 30.09 30.34 21.18 30 12 C27.41023355 16.89042335 27.41023355 16.89042335 24.82446289 21.78295898 C22.11111111 26.88888889 22.11111111 26.88888889 21 28 C19.02 28 17.04 28 15 28 C12.36 23.05 9.72 18.1 7 13 C6.67 21.58 6.34 30.16 6 39 C4.02 39 2.04 39 0 39 C-0.04898437 37.80761719 -0.09796875 36.61523438 -0.1484375 35.38671875 C-0.22347604 33.82028932 -0.2990234 32.25388421 -0.375 30.6875 C-0.42140625 29.50897461 -0.42140625 29.50897461 -0.46875 28.30664062 C-0.52675781 27.1706543 -0.52675781 27.1706543 -0.5859375 26.01171875 C-0.6173584 25.31522217 -0.6487793 24.61872559 -0.68115234 23.90112305 C-0.92118253 21.67467261 -0.92118253 21.67467261 -3 19 C-2.34 18.34 -1.68 17.68 -1 17 C-0.69324768 14.10032243 -0.48826629 11.28216822 -0.375 8.375 C-0.33632812 7.57320312 -0.29765625 6.77140625 -0.2578125 5.9453125 C-0.16346069 3.96392444 -0.08063785 1.98199355 0 0 Z " fill="#1B1B1B" transform="translate(9,10)"/>
</svg>
