<svg version="1.1" xmlns="http://www.w3.org/2000/svg" width="202" height="101">
<path d="M0 0 C66.66 0 133.32 0 202 0 C202 33.33 202 66.66 202 101 C135.34 101 68.68 101 0 101 C0 67.67 0 34.34 0 0 Z " fill="#ffffff0.8" transform="translate(0,0)"/>
<path d="M0 0 C0.99 0 1.98 0 3 0 C4.59412284 3.18824568 4.10174735 6.62896662 4.0625 10.125 C4.05798828 10.87910156 4.05347656 11.63320312 4.04882812 12.41015625 C4.03703499 14.27347127 4.01909942 16.13674555 4 18 C6.64 18.33 9.28 18.66 12 19 C12.19335938 18.32453125 12.38671875 17.6490625 12.5859375 16.953125 C12.97652344 15.61507813 12.97652344 15.61507813 13.375 14.25 C13.75785156 12.92742188 13.75785156 12.92742188 14.1484375 11.578125 C14.9209934 9.23919428 15.83625676 7.16557438 17 5 C18.32 5.33 19.64 5.66 21 6 C20.34309381 9.78239671 19.279869 13.21841526 17.9375 16.8125 C17.57527344 17.78832031 17.21304688 18.76414062 16.83984375 19.76953125 C16.42412109 20.87361328 16.42412109 20.87361328 16 22 C17.65 22.99 19.3 23.98 21 25 C21.60328125 24.3503125 22.2065625 23.700625 22.828125 23.03125 C23.62734375 22.1959375 24.4265625 21.360625 25.25 20.5 C26.03890625 19.6646875 26.8278125 18.829375 27.640625 17.96875 C30 16 30 16 34 16 C33.45015228 19.87511727 31.72444669 21.59576506 28.9375 24.25 C27.83728516 25.30960938 27.83728516 25.30960938 26.71484375 26.390625 C26.14894531 26.92171875 25.58304687 27.4528125 25 28 C25.99 29.98 25.99 29.98 27 32 C27.81984375 31.62746094 28.6396875 31.25492188 29.484375 30.87109375 C30.56203125 30.39800781 31.6396875 29.92492187 32.75 29.4375 C33.81734375 28.96183594 34.8846875 28.48617188 35.984375 27.99609375 C38.98369837 27.0053846 40.13421241 26.83838221 43 28 C42 31 42 31 39.05859375 32.60546875 C37.26615234 33.38857422 37.26615234 33.38857422 35.4375 34.1875 C34.23996094 34.71730469 33.04242188 35.24710938 31.80859375 35.79296875 C30.88175781 36.19128906 29.95492187 36.58960938 29 37 C29 39.31 29 41.62 29 44 C34.28 44 39.56 44 45 44 C45.495 45.98 45.495 45.98 46 48 C40.06 48 34.12 48 28 48 C27.67 50.31 27.34 52.62 27 55 C41.85 55 56.7 55 72 55 C71.67 56.32 71.34 57.64 71 59 C24.8 59 -21.4 59 -69 59 C-69 57.68 -69 56.36 -69 55 C-54.48 55 -39.96 55 -25 55 C-25.66 53.35 -26.32 51.7 -27 50 C-27.98742187 49.93941406 -28.97484375 49.87882812 -29.9921875 49.81640625 C-31.27351563 49.73261719 -32.55484375 49.64882813 -33.875 49.5625 C-35.15117188 49.48128906 -36.42734375 49.40007813 -37.7421875 49.31640625 C-41 49 -41 49 -43 48 C-43 46.68 -43 45.36 -43 44 C-37.39 44 -31.78 44 -26 44 C-26.495 40.535 -26.495 40.535 -27 37 C-29.68228228 35.22059203 -29.68228228 35.22059203 -33 34.3125 C-36.3125 33.23828125 -36.3125 33.23828125 -39 32 C-39.875 29.85546875 -39.875 29.85546875 -40 28 C-35.90739982 26.63579994 -33.52987341 28.2335485 -29.8125 29.9375 C-29.15830078 30.22818359 -28.50410156 30.51886719 -27.83007812 30.81835938 C-26.21618656 31.53695343 -24.60756345 32.2673588 -23 33 C-22.34 31.02 -21.68 29.04 -21 27 C-21.721875 26.31292969 -22.44375 25.62585938 -23.1875 24.91796875 C-24.115625 24.01691406 -25.04375 23.11585937 -26 22.1875 C-26.928125 21.29417969 -27.85625 20.40085937 -28.8125 19.48046875 C-31 17 -31 17 -31 14 C-26.58489226 14.48713098 -24.69553355 15.85053197 -21.6875 19.0625 C-20.99011719 19.79597656 -20.29273438 20.52945312 -19.57421875 21.28515625 C-18.79498047 22.13400391 -18.79498047 22.13400391 -18 23 C-15.69 22.34 -13.38 21.68 -11 21 C-11.66708984 19.67935547 -11.66708984 19.67935547 -12.34765625 18.33203125 C-12.91355469 17.17058594 -13.47945312 16.00914063 -14.0625 14.8125 C-14.63097656 13.66394531 -15.19945312 12.51539063 -15.78515625 11.33203125 C-17.04125973 7.88683423 -17.12742053 6.42091601 -16 3 C-15.01 3.33 -14.02 3.66 -13 4 C-11.45314418 7.30707107 -10.1820919 10.67952716 -8.890625 14.09375 C-8.26671875 15.0528125 -7.6428125 16.011875 -7 17 C-4.69 17.33 -2.38 17.66 0 18 C0 12.06 0 6.12 0 0 Z " fill="#ffffff" transform="translate(100,2)"/>
<path d="M0 0 C5.70599597 2.91639794 11.22072683 7.49927689 14.1953125 13.27734375 C16.02859363 19.6938277 15.76789293 26.52671414 12.8125 32.4375 C-1.3775 32.4375 -15.5675 32.4375 -30.1875 32.4375 C-31.92163065 25.50097741 -32.89930443 17.39775538 -29.125 11 C-21.4186109 0.67387523 -12.60195092 -2.22387369 0 0 Z "  fill="#000000" fill-opacity="100" transform="translate(109.1875,24.5625)"/>
<path d="M0 0 C34.98 0 69.96 0 106 0 C105.67 1.32 105.34 2.64 105 4 C70.35 4 35.7 4 0 4 C0 2.68 0 1.36 0 0 Z " fill="#ffffff" transform="translate(47,74)"/>
<path d="M0 0 C8.25 0 16.5 0 25 0 C25 1.32 25 2.64 25 4 C16.75 4 8.5 4 0 4 C0 2.68 0 1.36 0 0 Z " fill="#ffffff" transform="translate(87,92)"/>
</svg>
